<?xml version="1.0" encoding="UTF-8"?>
<svg id="Layer_1" data-name="Layer 1" xmlns="http://www.w3.org/2000/svg" viewBox="0 0 638.44 551.18">
  <defs>
    <style>
      .cls-1 {
        letter-spacing: 0em;
      }

      .cls-2, .cls-3, .cls-4, .cls-5, .cls-6 {
        isolation: isolate;
      }

      .cls-2, .cls-4, .cls-5, .cls-6 {
        font-family: Roboto-Bold, Roboto;
        font-weight: 700;
      }

      .cls-2, .cls-4, .cls-6 {
        font-size: 30.64px;
      }

      .cls-7 {
        fill-rule: evenodd;
      }

      .cls-7, .cls-8, .cls-9, .cls-10, .cls-11, .cls-12, .cls-13 {
        stroke-width: 0px;
      }

      .cls-4 {
        letter-spacing: 0em;
      }

      .cls-9 {
        fill: #414343;
      }

      .cls-10 {
        fill: #333;
      }

      .cls-11 {
        fill: #fff;
      }

      .cls-14 {
        letter-spacing: 0em;
      }

      .cls-5 {
        font-size: 11.92px;
      }

      .cls-12 {
        fill: #99d9e6;
      }

      .cls-13 {
        fill: #d2d5d6;
      }

      .cls-6 {
        letter-spacing: -.02em;
      }
    </style>
  </defs>
  <path class="cls-13" d="M246.86,469.25c-.53,0-5.85,42.56-6.38,43.63-1.06,9.04-2.66,14.36-7.45,18.62-1.6,1.6-3.19,2.13-4.79,3.19-3.72,2.66-6.92,4.26-11.17,6.92-3.19,1.6-6.92,7.98-3.19,9.58h210.68c3.72-1.6,0-7.45-3.19-9.04-4.26-2.66-7.45-4.79-11.17-7.98-1.6-1.06-3.19-2.66-4.79-4.26-4.26-4.26-6.38-7.98-7.45-17.02,0-1.06-6.38-47.35-6.38-43.63"/>
  <path class="cls-10" d="M638.44,403.81V17.56c0-9.58-7.45-17.56-17.02-17.56H17.02C7.45,0,0,7.98,0,17.56v386.79"/>
  <path class="cls-11" d="M34.58,34.58h569.27v334.65H34.58V34.58Z"/>
  <path class="cls-11" d="M228.77,34.58l375.08,332.09V34.58H228.77Z"/>
  <path class="cls-13" d="M0,403.28v48.41C0,461.27,7.45,469.25,17.02,469.25h603.85c9.58,0,17.02-7.98,17.02-17.56v-48.41"/>
  <path class="cls-9" d="M302.72,436.8c0,8.81,7.15,15.96,15.96,15.96s15.96-7.15,15.96-15.96-7.15-15.96-15.96-15.96-15.96,7.15-15.96,15.96Z"/>
  <path class="cls-10" d="M393.17,485.21c-.53-15.96-1.06-15.96-1.06-15.96h-144.71s-.53,0-1.06,15.96h146.84Z"/>
  <path class="cls-12" d="M280.84,324.49l-1.06,2.66,1.06-2.66Z"/>
  <path class="cls-8" d="M269.09,261.51h-62.44c-1.5,0-2.62,1.3-2.49,2.83l5.7,65.57c.14,1.53,1.42,3.14,2.88,3.55l22.48,6.41c1.45.41,3.81.42,5.26,0l22.51-6.4c1.45-.42,2.74-2,2.88-3.54l5.7-65.6c.14-1.53-.99-2.83-2.49-2.83h0ZM258.26,285.18s0,.02-.02.02-.02,0-.03-.02l-17.61,7.41c-.25.1-.39.37-.34.66.05.27.29.47.55.47h13.71c.73,0,1.42.31,1.91.88.49.55.72,1.3.65,2.04l-2.14,20.6c-.1,1.01-.77,1.87-1.7,2.2l-14.54,5.25c-.54.2-1.14.2-1.69,0l-14.47-5.14c-.94-.33-1.61-1.19-1.71-2.21l-.97-9.33c-.05-.49.1-.98.43-1.34s.77-.58,1.26-.58h4.03c.87,0,1.59.67,1.69,1.55l.6,5.74,10.02,3.58,10.07-3.61,1.23-11.89h-28.47c-.86,0-1.59-.66-1.69-1.55l-.54-5.04c-.09-.77.34-1.5,1.04-1.8l18.22-7.7c.2-.09.32-.31.28-.54-.04-.22-.24-.38-.46-.38h-19.18c-.58,0-1.06-.45-1.12-1.04l-.55-5.42c-.03-.32.07-.66.28-.89.21-.25.52-.38.83-.38h40.14c.32,0,.63.14.84.38.21.25.31.57.28.9l-.79,7.19h-.02Z"/>
  <path class="cls-8" d="M124.53,261.51c-.72,0-1.26.59-1.2,1.31l6.09,68.37c.07.72.69,1.46,1.39,1.66l25.87,7.18c.7.2,1.84.2,2.54,0l25.95-7.19c.7-.2,1.32-.94,1.39-1.66l6.1-68.36c.07-.72-.48-1.31-1.2-1.31h-66.93ZM179.68,277.19c-.06.64-.15,1.75-.22,2.48l-.16,1.8c-.07.72-.15,1.75-.2,2.29-.05.54-.09.98-.1.98h-31.99c-.72,0-1.26.59-1.2,1.31l.56,6.3c.07.72.71,1.31,1.43,1.31h29.24c.65,0,1.12.53,1.06,1.17s-.16,1.75-.22,2.48l-1.81,20.3c-.07.72-.14,1.64-.18,2.04-.03.4-.64.89-1.33,1.09l-15.29,4.24c-.7.2-1.28.35-1.29.36s-.59-.15-1.29-.35l-15.31-4.25c-.7-.2-1.32-.94-1.39-1.66l-.99-11.06c-.07-.72.48-1.31,1.2-1.31h6.11c.72,0,1.37.59,1.43,1.31l.38,4.32c.07.72.69,1.46,1.39,1.65l7.16,1.93c.7.19,1.27.34,1.28.34s.58-.15,1.28-.34l7.17-1.94c.7-.19,1.32-.93,1.39-1.65l.77-8.67c.07-.72-.48-1.31-1.2-1.31h-27.55c-.72,0-1.37-.59-1.43-1.31l-1.91-21.37c-.07-.72-.16-1.84-.22-2.48-.06-.64.49-1.17,1.21-1.17h40.99c.72,0,1.27.53,1.21,1.17h0Z"/>
  <path class="cls-8" d="M277.31,264.1v64.68h64.68v-64.68h-64.68ZM326.54,293.39c1.97,0,3.67.38,5.06,1.14s2.57,2,3.54,3.73l-4.72,3.05c-.51-.91-1.06-1.57-1.68-1.97s-1.34-.61-2.2-.61-1.56.24-2.09.72-.8,1.11-.8,1.86c0,.86.28,1.57.83,2.13.51.46,1.47.99,2.89,1.6l1.52.61c2.79,1.22,4.77,2.46,5.93,3.73,1.42,1.52,2.13,3.47,2.13,5.86,0,2.64-.96,4.72-2.89,6.24-1.83,1.47-4.24,2.2-7.23,2.2-2.69,0-5-.59-6.92-1.75-1.78-1.12-3.14-2.61-4.11-4.49l4.95-2.82c.71,1.17,1.5,2.05,2.36,2.66,1.01.66,2.23.99,3.65.99,1.22,0,2.2-.28,2.97-.83s1.14-1.29,1.14-2.2-.38-1.68-1.14-2.28c-.56-.41-1.65-.96-3.27-1.68l-1.52-.68c-2.43-1.01-4.21-2.15-5.33-3.42-1.32-1.47-1.97-3.37-1.97-5.7s.81-4.26,2.43-5.78,3.78-2.28,6.47-2.28v-.02ZM306.45,293.77h6.09v20.77c0,3.05-.86,5.35-2.59,6.92-1.57,1.47-3.75,2.2-6.55,2.2-2.28,0-4.24-.54-5.86-1.6-1.37-.96-2.46-2.28-3.27-3.96l5.02-2.97c.56,1.06,1.06,1.8,1.52,2.2.61.61,1.4.91,2.36.91,1.06,0,1.85-.26,2.36-.76.61-.61.91-1.63.91-3.05v-20.69.02Z"/>
  <path class="cls-8" d="M485.94,336.67c-3.24-.26-6.7-1.03-8.38-1.87-1.97-.99-4.03-2.84-4.76-4.29-.84-1.67-.84-1.61-.89-11.12-.04-6.25,0-9.01.11-9.62.3-1.54.91-2.59,2.36-4.02,1.43-1.42,2.81-2.23,4.26-2.52.52-.1,3.93-.14,10.25-.12,9.36.06,9.48.06,10.62-.28,2.08-.57,4.33-2.38,5.35-4.3,1.09-2.05,1.32-3.52,1.32-8.55v-3.99l4.28.06,4.28.06.97.49c3.19,1.62,5.4,5.57,6.42,11.48.33,1.91.39,5.79.14,8.12-.51,4.59-1.93,8.25-4.11,10.55-1.8,1.91-3.22,2.52-6.35,2.75-2.03.14-9.13.1-18.78-.12l-4.05-.09v1l3.04.09c1.67.06,5.08.09,7.59.09s4.75.06,5,.09l.45.09v3.26c0,4.95-.43,6.71-2.07,8.44-3.18,3.37-9.32,4.92-17.02,4.31v-.02h-.03ZM491.97,335.61c4.81-.25,9.63-2.51,11.08-5.19.73-1.34.88-2.27.89-5.64v-3.08l-2.36-.09c-1.3-.06-4.76-.09-7.68-.11-2.92,0-5.46-.06-5.64-.11-.31-.09-.32-.15-.32-1.65v-1.57l3.98.11c2.19.06,7.86.11,12.6.11,9.12,0,9.24,0,10.62-.68,2.25-1.1,4.16-3.77,5.17-7.21.77-2.63.98-4.31,1-7.89.02-3.76-.19-5.17-1.2-8.25-1.14-3.47-2.73-5.69-4.85-6.77l-.95-.49-2.45-.06c-1.34-.06-2.92,0-3.49.06l-1.04.09v2.78c0,1.53-.07,3.45-.16,4.26-.39,3.63-1.66,6.12-4.04,7.91-1.23.92-1.98,1.32-3.26,1.74-.91.3-1.17.31-10.98.31h-10.04l-.81.33c-1.07.43-2.67,1.57-3.41,2.43-.83.95-1.43,2.24-1.62,3.41-.2,1.3-.07,16.93.15,17.94.43,1.94,1.97,3.86,4.12,5.11,1.69.98,3.24,1.46,6.24,1.92,1.66.26,5.11.49,6.23.42.39,0,1.4-.08,2.22-.13h0ZM496.91,331.71c-1.29-.31-2.15-.94-2.7-1.98-.42-.79-.43-2.36-.04-3.15,1.73-3.48,6.97-2.31,6.96,1.57,0,1.9-1.34,3.35-3.29,3.57-.36.06-.77.06-.94,0h0ZM462.32,318.77c-3.18-1.1-5.41-4.35-6.75-9.86-.54-2.2-.72-4.85-.52-7.68.29-4.16.84-6.54,2.15-9.18.7-1.41.98-1.81,1.97-2.82,1.25-1.26,2.54-2,4.09-2.37.59-.14,3.86-.2,12.99-.26l12.2-.09v-1.86l-7.98-.06-7.98-.06-.09-.32c-.14-.52-.09-5.51.06-6.98.24-2.24.71-3.43,1.81-4.61.8-.85,2.51-1.72,4.21-2.13,2.45-.59,3.55-.66,9.9-.66s8.04.11,9.9.67c2.53.77,5.12,3.12,5.89,5.35.49,1.45.57,2.92.57,11.05,0,8.61-.03,8.99-.83,10.47-.84,1.57-3.09,3.43-5.02,4.15-.8.3-1.03.31-9.3.34-8.91.06-11.36.15-12.86.62-2.24.7-4.37,2.48-5.36,4.49-.94,1.91-.98,2.15-1.05,7.24l-.06,4.61-2.68.09c-3.84.14-4.46.11-5.26-.16v.03h0ZM480.99,279.94c.95-.64,1.28-1.27,1.28-2.48,0-.93-.04-1.11-.43-1.66-.89-1.28-2.51-1.67-3.91-.95-2.2,1.13-2.09,4.25.18,5.31.82.38,2.12.29,2.89-.22h0Z"/>
  <path class="cls-8" d="M361.52,303.33v39.34h78.67v-78.67h-78.67v39.34h0ZM424.92,300.19c2,.5,3.52,1.4,4.93,2.84.72.77,1.8,2.18,1.88,2.52.03.1-3.4,2.39-5.47,3.68-.08.05-.38-.26-.72-.77-1.01-1.47-2.08-2.11-3.7-2.23-2.38-.15-3.92,1.09-3.91,3.18,0,.51.1,1.02.33,1.47.53,1.09,1.52,1.74,4.55,3.06,5.64,2.42,8.04,4.02,9.54,6.29,1.68,2.54,2.05,6.58.92,9.6-1.25,3.27-4.35,5.49-8.71,6.22-1.34.25-4.55.2-5.99-.07-3.16-.56-6.15-2.13-8-4.17-.73-.79-2.14-2.88-2.05-3.02.04-.05.36-.26.72-.46s1.68-.97,2.92-1.69l2.26-1.32.48.71c.66,1.01,2.11,2.39,2.99,2.85,2.51,1.34,5.96,1.14,7.66-.38.69-.58,1.08-1.46,1.02-2.36,0-.91-.12-1.32-.59-2-.61-.87-1.86-1.61-5.41-3.15-4.06-1.75-5.81-2.83-7.4-4.55-1-1.14-1.74-2.49-2.16-3.93-.3-1.12-.37-3.91-.14-5.02.83-3.93,3.81-6.66,8.07-7.47,1.39-.26,4.61-.17,5.97.17h0ZM406.46,303.49l.03,3.21h-10.25v29.1h-7.24v-29.1h-10.23v-3.15c0-1.75.04-3.21.09-3.25.04-.05,6.27-.08,13.82-.07l13.76.04.04,3.21h0Z"/>
  <g>
    <g class="cls-3">
      <text class="cls-4" transform="translate(143.43 157.33)"><tspan x="0" y="0">F</tspan></text>
      <text class="cls-2" transform="translate(159.89 157.33)"><tspan x="0" y="0">ull Stack </tspan></text>
      <text class="cls-6" transform="translate(286.53 157.33)"><tspan x="0" y="0">W</tspan></text>
      <text class="cls-2" transform="translate(312.86 157.33)"><tspan x="0" y="0">eb D</tspan></text>
      <text class="cls-2" transform="translate(374.22 157.33)"><tspan class="cls-1" x="0" y="0">e</tspan><tspan class="cls-14" x="16.37" y="0">v</tspan></text>
      <text class="cls-2" transform="translate(405.89 157.33)"><tspan x="0" y="0">eloper</tspan></text>
    </g>
    <g class="cls-3">
      <text class="cls-4" transform="translate(143.43 157.33)"><tspan x="0" y="0">F</tspan></text>
      <text class="cls-2" transform="translate(159.89 157.33)"><tspan x="0" y="0">ull Stack </tspan></text>
      <text class="cls-6" transform="translate(286.53 157.33)"><tspan x="0" y="0">W</tspan></text>
      <text class="cls-2" transform="translate(312.86 157.33)"><tspan x="0" y="0">eb D</tspan></text>
      <text class="cls-2" transform="translate(374.22 157.33)"><tspan class="cls-1" x="0" y="0">e</tspan><tspan class="cls-14" x="16.37" y="0">v</tspan></text>
      <text class="cls-2" transform="translate(405.89 157.33)"><tspan x="0" y="0">eloper</tspan></text>
    </g>
  </g>
  <g class="cls-3">
    <text class="cls-5" transform="translate(303.41 233.09)"><tspan x="0" y="0">Skills</tspan></text>
  </g>
  <g class="cls-3">
    <text class="cls-5" transform="translate(65.26 80.72)"><tspan x="0" y="0">X</tspan></text>
  </g>
  <g id="Page-1">
    <g id="Icon-Set">
      <path id="toggle-on" class="cls-7" d="M543.46,85.92c-2.88,0-5.21-2.33-5.21-5.21s2.33-5.21,5.21-5.21,5.21,2.33,5.21,5.21-2.33,5.21-5.21,5.21h0ZM543.46,72.9c-4.32,0-7.81,3.5-7.81,7.81s3.5,7.81,7.81,7.81,7.81-3.5,7.81-7.81-3.5-7.81-7.81-7.81h0ZM559.09,91.13h-15.62c-5.75,0-10.42-4.66-10.42-10.42s4.66-10.42,10.42-10.42h15.62c5.75,0,10.42,4.66,10.42,10.42s-4.66,10.42-10.42,10.42h0ZM559.09,67.69h-15.62c-7.19,0-13.02,5.83-13.02,13.02s5.83,13.02,13.02,13.02h15.62c7.19,0,13.02-5.83,13.02-13.02s-5.83-13.02-13.02-13.02h0Z"/>
    </g>
  </g>
</svg>