<?xml version="1.0" encoding="UTF-8"?>
<svg id="Layer_1" data-name="Layer 1" xmlns="http://www.w3.org/2000/svg" viewBox="0 0 638.44 551.18">
  <defs>
    <style>
      .cls-1 {
        fill: #414343;
      }

      .cls-1, .cls-2, .cls-3, .cls-4, .cls-5, .cls-6 {
        stroke-width: 0px;
      }

      .cls-2 {
        fill: #333;
      }

      .cls-3 {
        fill: #ccc;
      }

      .cls-4 {
        fill: #99d9e6;
      }

      .cls-5 {
        fill: #d2d5d6;
      }

      .cls-6 {
        fill: #1b1b1f;
      }
    </style>
  </defs>
  <path class="cls-5" d="M246.86,469.25c-.53,0-5.85,42.56-6.38,43.63-1.06,9.04-2.66,14.36-7.45,18.62-1.6,1.6-3.19,2.13-4.79,3.19-3.72,2.66-6.92,4.26-11.17,6.92-3.19,1.6-6.92,7.98-3.19,9.58h210.68c3.72-1.6,0-7.45-3.19-9.04-4.26-2.66-7.45-4.79-11.17-7.98-1.6-1.06-3.19-2.66-4.79-4.26-4.26-4.26-6.38-7.98-7.45-17.02,0-1.06-6.38-47.35-6.38-43.63"/>
  <path class="cls-2" d="M638.44,403.81V17.56c0-9.58-7.45-17.56-17.02-17.56H17.02C7.45,0,0,7.98,0,17.56v386.79"/>
  <rect class="cls-3" x="34.58" y="34.58" width="569.27" height="334.65"/>
  <path class="cls-3" d="M228.77,34.58l375.08,332.09V34.58H228.77Z"/>
  <path class="cls-5" d="M0,403.28v48.41C0,461.27,7.45,469.25,17.02,469.25h603.85c9.58,0,17.02-7.98,17.02-17.56v-48.41"/>
  <path class="cls-1" d="M302.72,436.8c0,8.81,7.15,15.96,15.96,15.96s15.96-7.15,15.96-15.96-7.15-15.96-15.96-15.96-15.96,7.15-15.96,15.96Z"/>
  <path class="cls-2" d="M393.17,485.21c-.53-15.96-1.06-15.96-1.06-15.96h-144.71s-.53,0-1.06,15.96h146.84Z"/>
  <path class="cls-4" d="M280.84,324.49l-1.06,2.66,1.06-2.66Z"/>
  <path class="cls-6" d="M398.51,135.43l-69.57-41.29c-8.24-4.88-18.48-4.88-26.72,0l-69.57,41.29c-8.41,5.02-13.56,14.1-13.53,23.9v82.59c-.05,9.77,5.04,18.85,13.41,23.9l69.57,41.29c8.24,4.88,18.48,4.88,26.72,0l69.57-41.29c8.37-5.05,13.46-14.13,13.41-23.9v-82.59c.08-9.75-4.97-18.82-13.29-23.9ZM344.63,264.39v5.93c0,.74-.39,1.43-1.02,1.82l-3.52,2.02c-.56.29-1.02,0-1.02-.78v-5.83c-2.49,1.22-5.34,1.5-8.02.78-.43-.29-.59-.84-.39-1.31l1.26-5.37c.11-.45.35-.86.7-1.17.1-.1.22-.18.34-.24.18-.08.38-.08.56,0,2.46.66,5.07.33,7.29-.92,3.21-1.57,5.3-4.77,5.44-8.33,0-3.01-1.65-4.28-5.64-4.3-5.05,0-9.72-.97-9.84-8.43.12-6.45,3.11-12.51,8.16-16.52v-6c0-.75.38-1.45,1.02-1.85l3.4-2.16c.56-.29,1.02,0,1.02.8v6c2.08-.95,4.41-1.23,6.66-.8.49.28.68.88.44,1.38l-1.19,5.32c-.1.41-.31.77-.61,1.07-.1.11-.21.2-.34.27-.17.06-.34.06-.51,0-2.19-.48-4.49-.11-6.41,1.04-2.87,1.24-4.76,4.02-4.86,7.14,0,2.72,1.43,3.55,6.24,3.64,6.44,0,9.21,2.91,9.28,9.38-.12,6.77-3.21,13.14-8.45,17.42ZM380.54,255.74l-17.59,10.69c-.21.18-.54.16-.72-.06-.11-.12-.15-.29-.11-.45v-4.54c.02-.5.34-.94.8-1.12l17.32-10.37c.21-.18.54-.16.72.06.11.12.15.29.11.45v4.01c.09.51-.12,1.03-.53,1.34ZM393.19,152.85h.02l-65.83,40.66c-8.21,4.86-14.26,10.18-14.26,20.06v81.08c0,5.93,2.43,9.72,6.07,10.88-1.2.23-2.42.35-3.64.36-3.87,0-7.66-1.06-10.98-3.04l-69.57-41.29c-6.87-4.16-11.06-11.62-11.03-19.65v-82.59c-.04-8.04,4.15-15.51,11.03-19.68l69.57-41.29c6.74-3.99,15.12-3.99,21.86,0l69.57,41.29c5.73,3.47,9.64,9.29,10.69,15.91-2.26-4.91-7.46-6.27-13.51-2.72Z"/>
</svg>